<?xml version="1.0" standalone="no"?><!DOCTYPE svg PUBLIC "-//W3C//DTD SVG 1.1//EN" "http://www.w3.org/Graphics/SVG/1.1/DTD/svg11.dtd"><svg t="1604847702835" class="icon" viewBox="0 0 1024 1024" version="1.1" xmlns="http://www.w3.org/2000/svg" p-id="3931" xmlns:xlink="http://www.w3.org/1999/xlink" width="48" height="48"><defs><style type="text/css"></style></defs><path d="M197 132.14l-0.6 0.54a22.63 22.63 0 0 0 3.29-2.27c-0.83 0.5-1.64 1-2.45 1.55zM826.28 138.38l-0.54-0.6a22.63 22.63 0 0 0 2.27 3.29c-0.5-0.83-1-1.65-1.55-2.45zM190.72 885.62l0.54 0.6a21.16 21.16 0 0 0-2.27-3.29c0.5 0.83 1 1.64 1.56 2.44a2.2 2.2 0 0 0 0.17 0.25z" p-id="3932" fill="#ffffff"></path><path d="M608.63 898.73H262.48c-14.9 0-29.79 0.11-44.69 0-1.59 0-3.17-0.08-4.74-0.19a68.15 68.15 0 0 1-8.67-2.37 64.74 64.74 0 0 1-6.63-3.78c-0.05 0-0.26-0.16-0.54-0.32-1.18-1.05-2.36-2.09-3.49-3.21a67.99 67.99 0 0 1-2.46-2.64c0.24 0.39 0.51 0.82 0.79 1.3-0.39-0.66-0.88-1.27-1.33-1.9l-0.54-0.61c-1-1.1-1.65-2.51-1.19-2.08-0.93-1.54-1.78-3.12-2.58-4.72a68.46 68.46 0 0 1-2.37-8.66c-0.51-7.18-0.19-14.51-0.19-21.66V185.73v-26c0-1.76 0.07-3.51 0.19-5.25a68.17 68.17 0 0 1 2.37-8.64 62 62 0 0 1 3.78-6.62c0-0.06 0.16-0.26 0.32-0.54 1.05-1.18 2.09-2.37 3.21-3.49 0.85-0.85 1.74-1.66 2.64-2.46l-1.3 0.79c0.66-0.39 1.27-0.89 1.9-1.33l0.61-0.54c1.1-1 2.5-1.65 2.08-1.19 1.53-0.93 3.11-1.78 4.72-2.58a67.4 67.4 0 0 1 8.59-2.36c6.13-0.42 12.35-0.2 18.47-0.2h498.79c22.9 0 45.82-0.16 68.72 0 1.69 0 3.37 0.08 5 0.19a68.17 68.17 0 0 1 8.64 2.37 63.71 63.71 0 0 1 6.62 3.77l0.54 0.33c1.18 1 2.37 2.09 3.49 3.21 0.85 0.85 1.66 1.74 2.46 2.64l-0.79-1.3c0.4 0.65 0.89 1.27 1.33 1.9l0.54 0.6c1 1.11 1.65 2.51 1.19 2.09 0.93 1.53 1.78 3.11 2.58 4.72a68.17 68.17 0 0 1 2.36 8.56c0.35 5.27 0.2 10.59 0.2 15.86v417.1c0 20.06-0.37 40.17 0 60.24v0.87c0 15.76 13.86 30.87 30.14 30.14s30.13-13.24 30.13-30.14V165.65v-6.51c-0.19-22.68-8.17-43.23-22.33-60.74-18.24-22.58-46.48-33.4-75-33.4H226.83c-14.43 0-28.87 0.64-42.45 6.22-12.66 5.21-24 11.87-33.74 21.77s-16.29 21.25-21.35 34c-4.1 10.39-5.68 21.88-5.71 33V864.8c0.34 44.33 32.87 85.92 77.63 92.58 11.91 1.78 23.37 1.62 35.34 1.62h372.08c15.77 0 30.87-13.86 30.14-30.14s-13.24-30.13-30.14-30.13z m213.31-765.26a10.12 10.12 0 0 1-1.35-1.05c0.69 0.44 1.41 0.92 1.35 1.05z m-629.89 3a10.12 10.12 0 0 1-1.05 1.35c0.44-0.68 0.92-1.37 1.05-1.34z m3 754.05a11 11 0 0 1 1.36 1c-0.69-0.39-1.41-0.86-1.35-0.99z" p-id="3933" fill="#ffffff"></path><path d="M900.41 795c-0.73-16.33-13.24-30.14-30.13-30.14h-97.53v-97.52c0-15.76-13.86-30.87-30.13-30.14s-30.14 13.24-30.14 30.14v97.52H615c-15.76 0-30.87 13.86-30.14 30.14s13.24 30.13 30.14 30.13h97.52v97.53c0 15.76 13.86 30.86 30.14 30.13s30.13-13.24 30.13-30.13v-97.53h97.53c15.68 0 30.82-13.86 30.09-30.13zM736.39 371.1h0.76c15.76 0 30.86-13.86 30.13-30.14s-13.28-30.13-30.13-30.13H345.38c-18.08 0-36.21-0.36-54.29 0h-0.75c-15.77 0-30.87 13.86-30.14 30.13s13.24 30.14 30.14 30.14H682.1c18.08 0 36.21 0.36 54.29 0zM577.57 540H290.34c-15.77 0-30.87 13.87-30.14 30.14s13.24 30.13 30.14 30.13h287.23c15.76 0 30.87-13.86 30.14-30.13S594.47 540 577.57 540z" p-id="3934" fill="#ffffff"></path></svg>